<?xml version="1.0" encoding="utf-8"?>
<!-- Generator: Adobe Illustrator 21.0.0, SVG Export Plug-In . SVG Version: 6.00 Build 0)  -->
<svg version="1.1" id="Layer_1" xmlns="http://www.w3.org/2000/svg" xmlns:xlink="http://www.w3.org/1999/xlink" x="0px" y="0px"
	 viewBox="0 0 21 24" style="enable-background:new 0 0 21 24;" xml:space="preserve">
<style type="text/css">
	.st0{fill:#A68095;}
</style>
<title>ico-arrow</title>
<desc>Created with Sketch.</desc>
<g id="up-btn" transform="translate(-12.000000, -11.000000)">
	<g id="ico-arrow">
		<path class="st0" d="M12.5,22.5c0.7,0.7,1.7,0.7,2.4,0l5.7-5.7v16.5c0,1,0.7,1.7,1.7,1.7c1,0,1.7-0.7,1.7-1.7V16.8l5.7,5.7
			c0.7,0.7,1.7,0.7,2.4,0s0.7-1.7,0-2.4l-8.6-8.6c-0.3-0.3-0.7-0.5-1.2-0.5c-0.5,0-0.9,0.2-1.2,0.5l-8.6,8.6
			C11.8,20.8,11.8,21.8,12.5,22.5z"/>
	</g>
</g>
</svg>
